{"highlevel": {"danceability": {"all": {"danceable": 3.00000096379e-14,"not_danceable": 1},"probability": 1,"value": "not_danceable"},"gender": {"all": {"female": 0.423269361258,"male": 0.576730668545},"probability": 0.576730668545,"value": "male"},"genre_dortmund": {"all": {"alternative": 0.0858735740185,"blues": 0.0684679150581,"electronic": 0.451535731554,"folkcountry": 0.234707579017,"funksoulrnb": 0.00948769319803,"jazz": 0.049272172153,"pop": 0.020687431097,"raphiphop": 0.00416606897488,"rock": 0.0758018419147},"probability": 0.451535731554,"value": "electronic"},"genre_electronic": {"all": {"ambient": 0.945984840393,"dnb": 0.0065859076567,"house": 0.016376664862,"techno": 0.00295732426457,"trance": 0.0280952751637},"probability": 0.945984840393,"value": "ambient"},"genre_rosamerica": {"all": {"cla": 0.145589902997,"dan": 0.0154993012547,"hip": 0.0089039709419,"jaz": 0.0651051476598,"pop": 0.538735926151,"rhy": 0.131396695971,"roc": 0.0860076844692,"spe": 0.00876136869192},"probability": 0.538735926151,"value": "pop"},"genre_tzanetakis": {"all": {"blu": 0.0730833038688,"cla": 0.0405930094421,"cou": 0.0913295447826,"dis": 0.0730586126447,"hip": 0.0913221612573,"jaz": 0.182646587491,"met": 0.0521875545382,"pop": 0.0913304239511,"reg": 0.121778741479,"roc": 0.182670071721},"probability": 0.182670071721,"value": "roc"},"ismir04_rhythm": {"all": {"ChaChaCha": 0.00895437784493,"Jive": 0.0112376697361,"Quickstep": 0.00492957327515,"Rumba-American": 0.00272900378332,"Rumba-International": 0.00274166022427,"Rumba-Misc": 0.0012077097781,"Samba": 0.00712794531137,"Tango": 0.926122486591,"VienneseWaltz": 0.0319322124124,"Waltz": 0.00301736383699},"probability": 0.926122486591,"value": "Tango"},"mood_acoustic": {"all": {"acoustic": 0.0953807756305,"not_acoustic": 0.904619216919},"probability": 0.904619216919,"value": "not_acoustic"},"mood_aggressive": {"all": {"aggressive": 3.00000096379e-14,"not_aggressive": 1},"probability": 1,"value": "not_aggressive"},"mood_electronic": {"all": {"electronic": 0.979391694069,"not_electronic": 0.0206082761288},"probability": 0.979391694069,"value": "electronic"},"mood_happy": {"all": {"happy": 0.294647306204,"not_happy": 0.705352723598},"probability": 0.705352723598,"value": "not_happy"},"mood_party": {"all": {"not_party": 0.999984204769,"party": 1.57784197654e-05},"probability": 0.999984204769,"value": "not_party"},"mood_relaxed": {"all": {"not_relaxed": 0.191182896495,"relaxed": 0.808817088604},"probability": 0.808817088604,"value": "relaxed"},"mood_sad": {"all": {"not_sad": 0.746360063553,"sad": 0.253639906645},"probability": 0.746360063553,"value": "not_sad"},"moods_mirex": {"all": {"Cluster1": 0.162320837379,"Cluster2": 0.166569516063,"Cluster3": 0.351550489664,"Cluster4": 0.203232854605,"Cluster5": 0.11632630229},"probability": 0.351550489664,"value": "Cluster3"},"timbre": {"all": {"bright": 0.0680089592934,"dark": 0.931991040707},"probability": 0.931991040707,"value": "dark"},"tonal_atonal": {"all": {"atonal": 0.90141248703,"tonal": 0.0985875278711},"probability": 0.90141248703,"value": "atonal"},"voice_instrumental": {"all": {"instrumental": 0.719982206821,"voice": 0.280017763376},"probability": 0.719982206821,"value": "instrumental"}},"metadata": {"audio_properties": {"analysis_sample_rate": 44100,"bit_rate": 0,"equal_loudness": 0,"length": 98.8000030518,"lossless": 1,"replay_gain": -8.95577812195,"sample_rate": 44100,"codec": "flac","downmix": "mix","md5_encoded": "15961ee2fd7f05cd08c97d32fd057c04"},"tags": {"file_name": "14 A Swan Is Born.flac","album": ["Black Swan"],"albumartist": ["Clint Mansell"],"albumartistsort": ["Mansell, Clint"],"artist": ["Clint Mansell"],"artists": ["Clint Mansell"],"artistsort": ["Mansell, Clint"],"asin": ["B0046M15BQ"],"barcode": ["886978135629"],"catalog": ["88697813562"],"catalognumber": ["88697813562"],"composer": ["Clint Mansell"],"date": ["2010-11-30"],"discid": ["B80C5410"],"discnumber": ["1"],"disctotal": ["1"],"genre": ["Soundtrack"],"label": ["Sony Classical"],"logfile": ["Exact Audio Copy V1.0 beta 1 from 15. November 2010\nEAC extraction logfile from 16. December 2010, 19:17\nClint Mansell \/ Black Swan\nUsed drive  : TOSHIBA DVD-ROM SD-R5112   Adapter: 1  ID: 0\nRead mode               : Secure Utilize accurate stream : Yes Defeat audio cache      : Yes Make use of C2 pointers : No\nRead offset correction                      : 116 Overread into Lead-In and Lead-Out          : No Fill up missing offset samples with silence : Yes Delete leading and trailing silent blocks   : No Null samples used in CRC calculations       : Yes Used interface                              : Native Win32 interface for Win NT & 2000 Gap handling                                : Appended to previous track\nUsed output format              : User Defined Encoder Selected bitrate                : 1024 kBit\/s Quality                         : High Add ID3 tag                     : No Command line compressor         : C:\\Program Files\\Exact Audio Copy\\Flac\\flac.exe Additional command line options : -V -8 -T \"artist=%a\" -T \"title=%t\" -T \"album=%g\" -T \"date=%y\" -T \"tracknumber=%n\" -T \"genre=%m\" %s\n\nTOC of the extracted CD\nTrack |   Start  |  Length  | Start sector | End sector --------------------------------------------------------- 1  |  0:00.00 |  2:48.33 |         0    |    12632 2  |  2:48.33 |  1:06.61 |     12633    |    17643 3  |  3:55.19 |  2:39.04 |     17644    |    29572 4  |  6:34.23 |  1:56.24 |     29573    |    38296 5  |  8:30.47 |  3:28.57 |     38297    |    53953 6  | 11:59.29 |  2:08.32 |     53954    |    63585 7  | 14:07.61 |  3:29.58 |     63586    |    79318 8  | 17:37.44 |  1:42.47 |     79319    |    87015 9  | 19:20.16 |  2:20.33 |     87016    |    97548 10  | 21:40.49 |  3:45.12 |     97549    |   114435 11  | 25:25.61 |  8:01.53 |    114436    |   150563 12  | 33:27.39 |  3:51.36 |    150564    |   167924 13  | 37:19.00 |  1:30.58 |    167925    |   174732 14  | 38:49.58 |  1:38.60 |    174733    |   182142 15  | 40:28.43 |  5:44.70 |    182143    |   208012 16  | 46:13.38 |  6:23.35 |    208013    |   236772\n\nTrack  1\nFilename C:\\EACRips\\Clint Mansell - 2010 - Black Swan\\01 - Nina's Dream.wav\nPre-gap length  0:00:02.00\nPeak level 99.8 % Extraction speed 3.6 X Track quality 100.0 % Test CRC 3373296E Copy CRC 3373296E Track not present in AccurateRip database Copy OK\nTrack  2\nFilename C:\\EACRips\\Clint Mansell - 2010 - Black Swan\\02 - Mother Me.wav\nPeak level 37.8 % Extraction speed 3.0 X Track quality 100.0 % Test CRC C8825AD9 Copy CRC C8825AD9 Track not present in AccurateRip database Copy OK\nTrack  3\nFilename C:\\EACRips\\Clint Mansell - 2010 - Black Swan\\03 - The New Season.wav\nPeak level 39.6 % Extraction speed 3.3 X Track quality 99.9 % Test CRC 018280FB Copy CRC 018280FB Track not present in AccurateRip database Copy OK\nTrack  4\nFilename C:\\EACRips\\Clint Mansell - 2010 - Black Swan\\04 - A Room Of Her Own.wav\nPeak level 42.1 % Extraction speed 3.7 X Track quality 100.0 % Test CRC E67DEEDD Copy CRC E67DEEDD Track not present in AccurateRip database Copy OK\nTrack  5\nFilename C:\\EACRips\\Clint Mansell - 2010 - Black Swan\\05 - A New Swan Queen.wav\nPeak level 61.5 % Extraction speed 4.2 X Track quality 100.0 % Test CRC CDFF14CD Copy CRC CDFF14CD Track not present in AccurateRip database Copy OK\nTrack  6\nFilename C:\\EACRips\\Clint Mansell - 2010 - Black Swan\\06 - Lose Yourself.wav\nPeak level 94.8 % Extraction speed 3.8 X Track quality 100.0 % Test CRC C04C7C98 Copy CRC C04C7C98 Track not present in AccurateRip database Copy OK\nTrack  7\nFilename C:\\EACRips\\Clint Mansell - 2010 - Black Swan\\07 - Cruel Mistress.wav\nPeak level 80.2 % Extraction speed 4.1 X Track quality 100.0 % Test CRC 73E0F7AA Copy CRC 73E0F7AA Track not present in AccurateRip database Copy OK\nTrack  8\nFilename C:\\EACRips\\Clint Mansell - 2010 - Black Swan\\08 - Power, Seduction, Cries.wav\nPeak level 81.7 % Extraction speed 2.8 X Track quality 99.8 % Test CRC FA170140 Copy CRC FA170140 Track not present in AccurateRip database Copy OK\nTrack  9\nFilename C:\\EACRips\\Clint Mansell - 2010 - Black Swan\\09 - The Double.wav\nPeak level 66.1 % Extraction speed 3.2 X Track quality 99.9 % Test CRC B1B71DF9 Copy CRC B1B71DF9 Track not present in AccurateRip database Copy OK\nTrack 10\nFilename C:\\EACRips\\Clint Mansell - 2010 - Black Swan\\10 - Opposites Attract.wav\nPeak level 96.0 % Extraction speed 4.1 X Track quality 100.0 % Test CRC E5524E9F Copy CRC E5524E9F Track not present in AccurateRip database Copy OK\nTrack 11\nFilename C:\\EACRips\\Clint Mansell - 2010 - Black Swan\\11 - Night Of Terror.wav\nPeak level 96.3 % Extraction speed 4.6 X Track quality 100.0 % Test CRC D3E73EF0 Copy CRC D3E73EF0 Track not present in AccurateRip database Copy OK\nTrack 12\nFilename C:\\EACRips\\Clint Mansell - 2010 - Black Swan\\12 - Stumbled Beginnings....wav\nPeak level 95.8 % Extraction speed 4.2 X Track quality 100.0 % Test CRC 2C7E5D95 Copy CRC 2C7E5D95 Track not present in AccurateRip database Copy OK\nTrack 13\nFilename C:\\EACRips\\Clint Mansell - 2010 - Black Swan\\13 - It's My Time.wav\nPeak level 98.6 % Extraction speed 3.5 X Track quality 100.0 % Test CRC F7FD4EE7 Copy CRC F7FD4EE7 Track not present in AccurateRip database Copy OK\nTrack 14\nFilename C:\\EACRips\\Clint Mansell - 2010 - Black Swan\\14 - A Swan Is Born.wav\nPeak level 99.9 % Extraction speed 3.5 X Track quality 100.0 % Test CRC 0ADBD780 Copy CRC 0ADBD780 Track not present in AccurateRip database Copy OK\nTrack 15\nFilename C:\\EACRips\\Clint Mansell - 2010 - Black Swan\\15 - Perfection.wav\nPeak level 94.5 % Extraction speed 4.4 X Track quality 100.0 % Test CRC A9122595 Copy CRC A9122595 Track not present in AccurateRip database Copy OK\nTrack 16\nFilename C:\\EACRips\\Clint Mansell - 2010 - Black Swan\\16 - A Swan Song (For Nina).wav\nPeak level 78.2 % Extraction speed 4.5 X Track quality 100.0 % Test CRC 18B0BF8E Copy CRC 18B0BF8E Track not present in AccurateRip database Copy OK\n\nNone of the tracks are present in the AccurateRip database\nNo errors occurred\nEnd of status report\n==== Log checksum C6133284CD8BC4BDF6AF184A2D48883F7C217D0E847B2CA475E4432009CDACC3 ==== "],"media": ["CD"],"musicbrainz_albumartistid": ["fc015f11-be38-4b7d-b3e8-5d809242ecec"],"musicbrainz_albumid": ["6330b70d-d7bf-402c-a29b-edf84de5572a"],"musicbrainz_albumstatus": ["Official"],"musicbrainz_albumtype": ["Soundtrack"],"musicbrainz_artistid": ["fc015f11-be38-4b7d-b3e8-5d809242ecec"],"musicbrainz_discid": ["_w9x7agemDT0.Z5QnZDtPib9X3k-"],"musicbrainz_recordingid": ["66dd6335-5dc6-47b4-9dbf-7037bab6cb16"],"musicbrainz_releasegroupid": ["0fdd5e0b-c155-4b22-b77d-a482d47c5dae"],"musicbrainz_releasetrackid": ["5d1bb82f-ec36-3b1a-afc7-3a5cec977666"],"originaldate": ["2010-11-30"],"releasecountry": ["US"],"releasestatus": ["official"],"releasetype": ["album", "soundtrack"],"replaygain_album_gain": ["-3.20 dB"],"replaygain_album_peak": ["0.999939"],"replaygain_track_gain": ["-4.88 dB"],"replaygain_track_peak": ["0.999939"],"rip date": ["2010-12-16"],"ripping tool": ["Exact Audio Copy v1.0 beta 1"],"script": ["Latn"],"title": ["A Swan Is Born"],"totaldiscs": ["1"],"totaltracks": ["16"],"tracknumber": ["14"],"tracktotal": ["16"]},"version": {"highlevel": {"essentia": "2.1-beta5-dev","essentia_build_sha": "e74af04b57b164eed312abeef4963962215860f0","essentia_git_sha": "v2.1_beta4-499-g4013ebc","extractor": "music 2.0","gaia": "2.4.5","gaia_git_sha": "v2.4.4-44-g95f4851","models_essentia_git_sha": "v2.1_beta1"},"lowlevel": {"essentia": "2.1-beta1","essentia_build_sha": "5c9e65ec81695c916afb4cba055c226bfc528ee6","essentia_git_sha": "v2.1_beta1-28-g21ef5f4","extractor": "music 1.0"}}}}